<mxfile host="app.diagrams.net" modified="2024-05-24T11:25:21.780Z" agent="Mozilla/5.0 (Windows NT 10.0; Win64; x64) AppleWebKit/537.36 (KHTML, like Gecko) Chrome/125.0.0.0 Safari/537.36" etag="m9nZ551G1srUkRhhI1Pr" version="24.4.6" type="device">
  <diagram name="Page-1" id="xpWCqywT39otwydsFIcM">
    <mxGraphModel dx="1885" dy="4951" grid="1" gridSize="10" guides="1" tooltips="1" connect="1" arrows="1" fold="1" page="1" pageScale="1" pageWidth="850" pageHeight="1100" math="0" shadow="0">
      <root>
        <mxCell id="0" />
        <mxCell id="1" parent="0" />
        <mxCell id="eqK2j_GpqWFCPIP73Zsx-1" value="START" style="ellipse;whiteSpace=wrap;html=1;aspect=fixed;" parent="1" vertex="1">
          <mxGeometry x="410" y="-3820" width="80" height="80" as="geometry" />
        </mxCell>
        <mxCell id="eqK2j_GpqWFCPIP73Zsx-2" value="" style="endArrow=classic;html=1;rounded=0;exitX=0.425;exitY=0.975;exitDx=0;exitDy=0;exitPerimeter=0;" parent="1" edge="1">
          <mxGeometry width="50" height="50" relative="1" as="geometry">
            <mxPoint x="419.5" y="-381" as="sourcePoint" />
            <mxPoint x="419.5" y="-328" as="targetPoint" />
          </mxGeometry>
        </mxCell>
        <mxCell id="eqK2j_GpqWFCPIP73Zsx-3" value="" style="endArrow=classic;html=1;rounded=0;exitX=0.5;exitY=1;exitDx=0;exitDy=0;" parent="1" source="eqK2j_GpqWFCPIP73Zsx-1" edge="1">
          <mxGeometry width="50" height="50" relative="1" as="geometry">
            <mxPoint x="400" y="-3580" as="sourcePoint" />
            <mxPoint x="450" y="-3680" as="targetPoint" />
          </mxGeometry>
        </mxCell>
        <mxCell id="eqK2j_GpqWFCPIP73Zsx-5" value="SELECT BILL CATEGORY" style="rounded=1;whiteSpace=wrap;html=1;" parent="1" vertex="1">
          <mxGeometry x="390" y="-3680" width="120" height="60" as="geometry" />
        </mxCell>
        <mxCell id="eqK2j_GpqWFCPIP73Zsx-6" value="" style="endArrow=classic;html=1;rounded=0;exitX=0;exitY=0.5;exitDx=0;exitDy=0;" parent="1" source="eqK2j_GpqWFCPIP73Zsx-5" edge="1">
          <mxGeometry width="50" height="50" relative="1" as="geometry">
            <mxPoint x="400" y="-3580" as="sourcePoint" />
            <mxPoint x="70" y="-3650" as="targetPoint" />
          </mxGeometry>
        </mxCell>
        <mxCell id="eqK2j_GpqWFCPIP73Zsx-7" value="" style="endArrow=classic;html=1;rounded=0;exitX=1;exitY=0.5;exitDx=0;exitDy=0;" parent="1" source="eqK2j_GpqWFCPIP73Zsx-5" edge="1">
          <mxGeometry width="50" height="50" relative="1" as="geometry">
            <mxPoint x="400" y="-3580" as="sourcePoint" />
            <mxPoint x="810" y="-3650" as="targetPoint" />
          </mxGeometry>
        </mxCell>
        <mxCell id="eqK2j_GpqWFCPIP73Zsx-8" value="" style="endArrow=classic;html=1;rounded=0;" parent="1" edge="1">
          <mxGeometry width="50" height="50" relative="1" as="geometry">
            <mxPoint x="80" y="-3650" as="sourcePoint" />
            <mxPoint x="80" y="-3560" as="targetPoint" />
          </mxGeometry>
        </mxCell>
        <mxCell id="eqK2j_GpqWFCPIP73Zsx-9" value="" style="endArrow=classic;html=1;rounded=0;" parent="1" edge="1">
          <mxGeometry width="50" height="50" relative="1" as="geometry">
            <mxPoint x="280" y="-3650" as="sourcePoint" />
            <mxPoint x="280" y="-3560" as="targetPoint" />
          </mxGeometry>
        </mxCell>
        <mxCell id="eqK2j_GpqWFCPIP73Zsx-10" value="" style="endArrow=classic;html=1;rounded=0;" parent="1" edge="1">
          <mxGeometry width="50" height="50" relative="1" as="geometry">
            <mxPoint x="640" y="-3650" as="sourcePoint" />
            <mxPoint x="640" y="-3560" as="targetPoint" />
          </mxGeometry>
        </mxCell>
        <mxCell id="eqK2j_GpqWFCPIP73Zsx-11" value="" style="endArrow=classic;html=1;rounded=0;" parent="1" edge="1">
          <mxGeometry width="50" height="50" relative="1" as="geometry">
            <mxPoint x="800" y="-3650" as="sourcePoint" />
            <mxPoint x="800" y="-3560" as="targetPoint" />
          </mxGeometry>
        </mxCell>
        <mxCell id="eqK2j_GpqWFCPIP73Zsx-12" value="ELECTRICITY" style="rounded=0;whiteSpace=wrap;html=1;" parent="1" vertex="1">
          <mxGeometry x="20" y="-3560" width="120" height="60" as="geometry" />
        </mxCell>
        <mxCell id="eqK2j_GpqWFCPIP73Zsx-13" value="LANDLINE/BROADBAND" style="rounded=0;whiteSpace=wrap;html=1;" parent="1" vertex="1">
          <mxGeometry x="200" y="-3560" width="160" height="70" as="geometry" />
        </mxCell>
        <mxCell id="eqK2j_GpqWFCPIP73Zsx-14" value="CREDIT CARD" style="rounded=0;whiteSpace=wrap;html=1;" parent="1" vertex="1">
          <mxGeometry x="580" y="-3560" width="120" height="60" as="geometry" />
        </mxCell>
        <mxCell id="eqK2j_GpqWFCPIP73Zsx-15" value="GAS CYLINDER" style="rounded=0;whiteSpace=wrap;html=1;" parent="1" vertex="1">
          <mxGeometry x="740" y="-3560" width="120" height="60" as="geometry" />
        </mxCell>
        <mxCell id="eqK2j_GpqWFCPIP73Zsx-16" value="" style="endArrow=classic;html=1;rounded=0;exitX=0.442;exitY=1.017;exitDx=0;exitDy=0;exitPerimeter=0;" parent="1" edge="1">
          <mxGeometry width="50" height="50" relative="1" as="geometry">
            <mxPoint x="79.53999999999996" y="-3500" as="sourcePoint" />
            <mxPoint x="79.5" y="-3411.02" as="targetPoint" />
          </mxGeometry>
        </mxCell>
        <mxCell id="eqK2j_GpqWFCPIP73Zsx-17" value="SEARCH BY BILLER OR STATE" style="rounded=1;whiteSpace=wrap;html=1;" parent="1" vertex="1">
          <mxGeometry x="20" y="-3410" width="120" height="60" as="geometry" />
        </mxCell>
        <mxCell id="eqK2j_GpqWFCPIP73Zsx-18" value="" style="endArrow=classic;html=1;rounded=0;exitX=0.5;exitY=1;exitDx=0;exitDy=0;" parent="1" source="eqK2j_GpqWFCPIP73Zsx-17" edge="1">
          <mxGeometry width="50" height="50" relative="1" as="geometry">
            <mxPoint x="370" y="-3360" as="sourcePoint" />
            <mxPoint x="80" y="-3300" as="targetPoint" />
          </mxGeometry>
        </mxCell>
        <mxCell id="eqK2j_GpqWFCPIP73Zsx-19" value="VALID KEYWORD" style="rhombus;whiteSpace=wrap;html=1;" parent="1" vertex="1">
          <mxGeometry x="40" y="-3300" width="80" height="80" as="geometry" />
        </mxCell>
        <mxCell id="eqK2j_GpqWFCPIP73Zsx-20" value="YES" style="text;html=1;align=center;verticalAlign=middle;resizable=0;points=[];autosize=1;strokeColor=none;fillColor=none;" parent="1" vertex="1">
          <mxGeometry x="115" y="-3262" width="50" height="30" as="geometry" />
        </mxCell>
        <mxCell id="eqK2j_GpqWFCPIP73Zsx-21" value="" style="endArrow=classic;html=1;rounded=0;exitX=0.08;exitY=0;exitDx=0;exitDy=0;exitPerimeter=0;" parent="1" source="eqK2j_GpqWFCPIP73Zsx-20" edge="1">
          <mxGeometry width="50" height="50" relative="1" as="geometry">
            <mxPoint x="370" y="-3360" as="sourcePoint" />
            <mxPoint x="180" y="-3260" as="targetPoint" />
          </mxGeometry>
        </mxCell>
        <mxCell id="eqK2j_GpqWFCPIP73Zsx-22" value="" style="endArrow=classic;html=1;rounded=0;exitX=0;exitY=0.5;exitDx=0;exitDy=0;" parent="1" source="eqK2j_GpqWFCPIP73Zsx-19" edge="1">
          <mxGeometry width="50" height="50" relative="1" as="geometry">
            <mxPoint x="370" y="-3360" as="sourcePoint" />
            <mxPoint x="-10" y="-3260" as="targetPoint" />
          </mxGeometry>
        </mxCell>
        <mxCell id="eqK2j_GpqWFCPIP73Zsx-23" value="NO" style="edgeLabel;html=1;align=center;verticalAlign=middle;resizable=0;points=[];" parent="eqK2j_GpqWFCPIP73Zsx-22" vertex="1" connectable="0">
          <mxGeometry x="-0.36" y="7" relative="1" as="geometry">
            <mxPoint as="offset" />
          </mxGeometry>
        </mxCell>
        <mxCell id="eqK2j_GpqWFCPIP73Zsx-24" value="" style="endArrow=classic;html=1;rounded=0;" parent="1" edge="1">
          <mxGeometry width="50" height="50" relative="1" as="geometry">
            <mxPoint y="-3260" as="sourcePoint" />
            <mxPoint y="-3200" as="targetPoint" />
          </mxGeometry>
        </mxCell>
        <mxCell id="eqK2j_GpqWFCPIP73Zsx-25" value="" style="endArrow=classic;html=1;rounded=0;" parent="1" edge="1">
          <mxGeometry width="50" height="50" relative="1" as="geometry">
            <mxPoint x="170" y="-3262" as="sourcePoint" />
            <mxPoint x="170" y="-3202" as="targetPoint" />
          </mxGeometry>
        </mxCell>
        <mxCell id="eqK2j_GpqWFCPIP73Zsx-26" value="NO RESULT FOUND" style="rounded=0;whiteSpace=wrap;html=1;" parent="1" vertex="1">
          <mxGeometry x="-60" y="-3200" width="120" height="60" as="geometry" />
        </mxCell>
        <mxCell id="eqK2j_GpqWFCPIP73Zsx-27" value="ENTER DETAILS" style="rounded=1;whiteSpace=wrap;html=1;" parent="1" vertex="1">
          <mxGeometry x="110" y="-3200" width="120" height="60" as="geometry" />
        </mxCell>
        <mxCell id="eqK2j_GpqWFCPIP73Zsx-28" value="" style="endArrow=classic;html=1;rounded=0;exitX=0.5;exitY=1;exitDx=0;exitDy=0;" parent="1" source="eqK2j_GpqWFCPIP73Zsx-27" edge="1">
          <mxGeometry width="50" height="50" relative="1" as="geometry">
            <mxPoint x="350" y="-3120" as="sourcePoint" />
            <mxPoint x="170" y="-3090" as="targetPoint" />
          </mxGeometry>
        </mxCell>
        <mxCell id="eqK2j_GpqWFCPIP73Zsx-29" value="DETAILS VALID" style="rhombus;whiteSpace=wrap;html=1;" parent="1" vertex="1">
          <mxGeometry x="130" y="-3090" width="80" height="80" as="geometry" />
        </mxCell>
        <mxCell id="eqK2j_GpqWFCPIP73Zsx-32" value="YES" style="text;html=1;align=center;verticalAlign=middle;resizable=0;points=[];autosize=1;strokeColor=none;fillColor=none;" parent="1" vertex="1">
          <mxGeometry x="200" y="-3080" width="50" height="30" as="geometry" />
        </mxCell>
        <mxCell id="eqK2j_GpqWFCPIP73Zsx-33" value="" style="endArrow=classic;html=1;rounded=0;exitX=1;exitY=0.5;exitDx=0;exitDy=0;" parent="1" source="eqK2j_GpqWFCPIP73Zsx-29" edge="1">
          <mxGeometry width="50" height="50" relative="1" as="geometry">
            <mxPoint x="350" y="-3120" as="sourcePoint" />
            <mxPoint x="260" y="-3050" as="targetPoint" />
          </mxGeometry>
        </mxCell>
        <mxCell id="eqK2j_GpqWFCPIP73Zsx-34" value="" style="endArrow=classic;html=1;rounded=0;exitX=0;exitY=0.5;exitDx=0;exitDy=0;" parent="1" source="eqK2j_GpqWFCPIP73Zsx-29" edge="1">
          <mxGeometry width="50" height="50" relative="1" as="geometry">
            <mxPoint x="350" y="-3120" as="sourcePoint" />
            <mxPoint x="80" y="-3050" as="targetPoint" />
          </mxGeometry>
        </mxCell>
        <mxCell id="eqK2j_GpqWFCPIP73Zsx-35" value="NO" style="text;html=1;align=center;verticalAlign=middle;resizable=0;points=[];autosize=1;strokeColor=none;fillColor=none;" parent="1" vertex="1">
          <mxGeometry x="80" y="-3082" width="40" height="30" as="geometry" />
        </mxCell>
        <mxCell id="eqK2j_GpqWFCPIP73Zsx-36" value="" style="endArrow=classic;html=1;rounded=0;" parent="1" edge="1">
          <mxGeometry width="50" height="50" relative="1" as="geometry">
            <mxPoint x="250" y="-3050" as="sourcePoint" />
            <mxPoint x="250" y="-3000" as="targetPoint" />
          </mxGeometry>
        </mxCell>
        <mxCell id="eqK2j_GpqWFCPIP73Zsx-37" value="" style="endArrow=classic;html=1;rounded=0;" parent="1" edge="1">
          <mxGeometry width="50" height="50" relative="1" as="geometry">
            <mxPoint x="90" y="-3050" as="sourcePoint" />
            <mxPoint x="90" y="-3000" as="targetPoint" />
            <Array as="points">
              <mxPoint x="90" y="-3020" />
            </Array>
          </mxGeometry>
        </mxCell>
        <mxCell id="eqK2j_GpqWFCPIP73Zsx-38" value="SHOW BILL DETAILS" style="rounded=0;whiteSpace=wrap;html=1;" parent="1" vertex="1">
          <mxGeometry x="190" y="-3000" width="120" height="60" as="geometry" />
        </mxCell>
        <mxCell id="6FlCQtZglWTuluHg8GYG-1" value="" style="endArrow=classic;html=1;rounded=0;exitX=0.5;exitY=1;exitDx=0;exitDy=0;" parent="1" source="eqK2j_GpqWFCPIP73Zsx-38" edge="1">
          <mxGeometry width="50" height="50" relative="1" as="geometry">
            <mxPoint x="380" y="-3010" as="sourcePoint" />
            <mxPoint x="250" y="-2890" as="targetPoint" />
          </mxGeometry>
        </mxCell>
        <mxCell id="w6ZVpViBwcRsXh456MgW-1" value="PAYMENT" style="rounded=1;whiteSpace=wrap;html=1;" vertex="1" parent="1">
          <mxGeometry x="190" y="-2890" width="120" height="60" as="geometry" />
        </mxCell>
        <mxCell id="w6ZVpViBwcRsXh456MgW-2" value="PAYMENT DETAILS VALID" style="rhombus;whiteSpace=wrap;html=1;" vertex="1" parent="1">
          <mxGeometry x="210" y="-2790" width="80" height="80" as="geometry" />
        </mxCell>
        <mxCell id="w6ZVpViBwcRsXh456MgW-3" value="" style="endArrow=classic;html=1;rounded=0;exitX=0.5;exitY=1;exitDx=0;exitDy=0;entryX=0.5;entryY=0;entryDx=0;entryDy=0;" edge="1" parent="1" source="w6ZVpViBwcRsXh456MgW-1" target="w6ZVpViBwcRsXh456MgW-2">
          <mxGeometry width="50" height="50" relative="1" as="geometry">
            <mxPoint x="380" y="-2920" as="sourcePoint" />
            <mxPoint x="430" y="-2970" as="targetPoint" />
          </mxGeometry>
        </mxCell>
        <mxCell id="w6ZVpViBwcRsXh456MgW-4" value="" style="endArrow=classic;html=1;rounded=0;exitX=1;exitY=0.5;exitDx=0;exitDy=0;" edge="1" parent="1" source="w6ZVpViBwcRsXh456MgW-2">
          <mxGeometry width="50" height="50" relative="1" as="geometry">
            <mxPoint x="380" y="-2920" as="sourcePoint" />
            <mxPoint x="340" y="-2750" as="targetPoint" />
          </mxGeometry>
        </mxCell>
        <mxCell id="w6ZVpViBwcRsXh456MgW-5" value="" style="endArrow=classic;html=1;rounded=0;exitX=0;exitY=0.5;exitDx=0;exitDy=0;" edge="1" parent="1" source="w6ZVpViBwcRsXh456MgW-2">
          <mxGeometry width="50" height="50" relative="1" as="geometry">
            <mxPoint x="380" y="-2920" as="sourcePoint" />
            <mxPoint x="170" y="-2750" as="targetPoint" />
          </mxGeometry>
        </mxCell>
        <mxCell id="w6ZVpViBwcRsXh456MgW-7" value="YES" style="text;html=1;align=center;verticalAlign=middle;resizable=0;points=[];autosize=1;strokeColor=none;fillColor=none;" vertex="1" parent="1">
          <mxGeometry x="285" y="-2782" width="50" height="30" as="geometry" />
        </mxCell>
        <mxCell id="w6ZVpViBwcRsXh456MgW-8" value="NO" style="text;html=1;align=center;verticalAlign=middle;resizable=0;points=[];autosize=1;strokeColor=none;fillColor=none;" vertex="1" parent="1">
          <mxGeometry x="180" y="-2792" width="40" height="30" as="geometry" />
        </mxCell>
        <mxCell id="w6ZVpViBwcRsXh456MgW-9" value="BILL PAYMENT UNSUCCESSFUL" style="rounded=0;whiteSpace=wrap;html=1;" vertex="1" parent="1">
          <mxGeometry x="90" y="-2690" width="120" height="60" as="geometry" />
        </mxCell>
        <mxCell id="w6ZVpViBwcRsXh456MgW-10" value="BILL PAYMENT SUCCESSFUL" style="rounded=0;whiteSpace=wrap;html=1;" vertex="1" parent="1">
          <mxGeometry x="270" y="-2690" width="120" height="60" as="geometry" />
        </mxCell>
        <mxCell id="w6ZVpViBwcRsXh456MgW-11" value="" style="endArrow=classic;html=1;rounded=0;entryX=0.75;entryY=0;entryDx=0;entryDy=0;" edge="1" parent="1" target="w6ZVpViBwcRsXh456MgW-9">
          <mxGeometry width="50" height="50" relative="1" as="geometry">
            <mxPoint x="180" y="-2750" as="sourcePoint" />
            <mxPoint x="430" y="-2810" as="targetPoint" />
          </mxGeometry>
        </mxCell>
        <mxCell id="w6ZVpViBwcRsXh456MgW-12" value="" style="endArrow=classic;html=1;rounded=0;entryX=0.75;entryY=0;entryDx=0;entryDy=0;" edge="1" parent="1">
          <mxGeometry width="50" height="50" relative="1" as="geometry">
            <mxPoint x="329.5" y="-2750" as="sourcePoint" />
            <mxPoint x="329.5" y="-2690" as="targetPoint" />
          </mxGeometry>
        </mxCell>
        <mxCell id="w6ZVpViBwcRsXh456MgW-13" value="PLEASE CHECK YOUR DETAILS AND TRY AGAIN" style="rounded=0;whiteSpace=wrap;html=1;" vertex="1" parent="1">
          <mxGeometry x="30" y="-3000" width="120" height="60" as="geometry" />
        </mxCell>
        <mxCell id="w6ZVpViBwcRsXh456MgW-14" value="" style="endArrow=classic;html=1;rounded=0;exitX=0.442;exitY=1.017;exitDx=0;exitDy=0;exitPerimeter=0;" edge="1" parent="1">
          <mxGeometry width="50" height="50" relative="1" as="geometry">
            <mxPoint x="319.4099999999999" y="-3490" as="sourcePoint" />
            <mxPoint x="319.96" y="-3420" as="targetPoint" />
          </mxGeometry>
        </mxCell>
        <mxCell id="w6ZVpViBwcRsXh456MgW-16" value="SEARCH OPERATOR" style="rounded=1;whiteSpace=wrap;html=1;" vertex="1" parent="1">
          <mxGeometry x="260" y="-3420" width="120" height="60" as="geometry" />
        </mxCell>
        <mxCell id="w6ZVpViBwcRsXh456MgW-17" value="" style="endArrow=classic;html=1;rounded=0;exitX=0.5;exitY=1;exitDx=0;exitDy=0;entryX=0.5;entryY=0;entryDx=0;entryDy=0;" edge="1" parent="1" source="w6ZVpViBwcRsXh456MgW-16" target="w6ZVpViBwcRsXh456MgW-18">
          <mxGeometry width="50" height="50" relative="1" as="geometry">
            <mxPoint x="380" y="-3240" as="sourcePoint" />
            <mxPoint x="280" y="-3310" as="targetPoint" />
            <Array as="points">
              <mxPoint x="320" y="-3330" />
            </Array>
          </mxGeometry>
        </mxCell>
        <mxCell id="w6ZVpViBwcRsXh456MgW-18" value="VALID KEYWORD" style="rhombus;whiteSpace=wrap;html=1;" vertex="1" parent="1">
          <mxGeometry x="280" y="-3300" width="80" height="62" as="geometry" />
        </mxCell>
        <mxCell id="w6ZVpViBwcRsXh456MgW-21" value="" style="endArrow=classic;html=1;rounded=0;exitX=1;exitY=0.5;exitDx=0;exitDy=0;" edge="1" parent="1" source="w6ZVpViBwcRsXh456MgW-18">
          <mxGeometry width="50" height="50" relative="1" as="geometry">
            <mxPoint x="380" y="-3240" as="sourcePoint" />
            <mxPoint x="410" y="-3270" as="targetPoint" />
          </mxGeometry>
        </mxCell>
        <mxCell id="w6ZVpViBwcRsXh456MgW-22" value="" style="endArrow=classic;html=1;rounded=0;exitX=0;exitY=0.5;exitDx=0;exitDy=0;" edge="1" parent="1" source="w6ZVpViBwcRsXh456MgW-18">
          <mxGeometry width="50" height="50" relative="1" as="geometry">
            <mxPoint x="380" y="-3240" as="sourcePoint" />
            <mxPoint x="250" y="-3270" as="targetPoint" />
          </mxGeometry>
        </mxCell>
        <mxCell id="w6ZVpViBwcRsXh456MgW-23" value="YES" style="text;html=1;align=center;verticalAlign=middle;resizable=0;points=[];autosize=1;strokeColor=none;fillColor=none;" vertex="1" parent="1">
          <mxGeometry x="355" y="-3302" width="50" height="30" as="geometry" />
        </mxCell>
        <mxCell id="w6ZVpViBwcRsXh456MgW-24" value="NO" style="text;html=1;align=center;verticalAlign=middle;resizable=0;points=[];autosize=1;strokeColor=none;fillColor=none;" vertex="1" parent="1">
          <mxGeometry x="240" y="-3302" width="40" height="30" as="geometry" />
        </mxCell>
        <mxCell id="w6ZVpViBwcRsXh456MgW-27" value="" style="endArrow=classic;html=1;rounded=0;exitX=0.257;exitY=1.151;exitDx=0;exitDy=0;exitPerimeter=0;" edge="1" parent="1" source="w6ZVpViBwcRsXh456MgW-24">
          <mxGeometry width="50" height="50" relative="1" as="geometry">
            <mxPoint x="380" y="-3240" as="sourcePoint" />
            <mxPoint x="250" y="-3230" as="targetPoint" />
          </mxGeometry>
        </mxCell>
        <mxCell id="w6ZVpViBwcRsXh456MgW-29" value="" style="endArrow=classic;html=1;rounded=0;exitX=0.257;exitY=1.151;exitDx=0;exitDy=0;exitPerimeter=0;" edge="1" parent="1">
          <mxGeometry width="50" height="50" relative="1" as="geometry">
            <mxPoint x="405" y="-3272" as="sourcePoint" />
            <mxPoint x="405" y="-3215" as="targetPoint" />
          </mxGeometry>
        </mxCell>
        <mxCell id="w6ZVpViBwcRsXh456MgW-30" value="NO RESULT FOUND" style="rounded=0;whiteSpace=wrap;html=1;" vertex="1" parent="1">
          <mxGeometry x="235" y="-3232" width="120" height="60" as="geometry" />
        </mxCell>
        <mxCell id="w6ZVpViBwcRsXh456MgW-31" value="ENTER DETAILS" style="rounded=1;whiteSpace=wrap;html=1;" vertex="1" parent="1">
          <mxGeometry x="370" y="-3210" width="120" height="60" as="geometry" />
        </mxCell>
        <mxCell id="w6ZVpViBwcRsXh456MgW-32" value="" style="endArrow=classic;html=1;rounded=0;exitX=0.5;exitY=1;exitDx=0;exitDy=0;" edge="1" parent="1">
          <mxGeometry width="50" height="50" relative="1" as="geometry">
            <mxPoint x="429.40999999999997" y="-3150" as="sourcePoint" />
            <mxPoint x="429.40999999999997" y="-3100" as="targetPoint" />
          </mxGeometry>
        </mxCell>
        <mxCell id="w6ZVpViBwcRsXh456MgW-33" value="DETAILS VALID" style="rhombus;whiteSpace=wrap;html=1;" vertex="1" parent="1">
          <mxGeometry x="390" y="-3100" width="80" height="80" as="geometry" />
        </mxCell>
        <mxCell id="w6ZVpViBwcRsXh456MgW-34" value="" style="endArrow=classic;html=1;rounded=0;exitX=0;exitY=0.5;exitDx=0;exitDy=0;" edge="1" parent="1" source="w6ZVpViBwcRsXh456MgW-33">
          <mxGeometry width="50" height="50" relative="1" as="geometry">
            <mxPoint x="380" y="-3100" as="sourcePoint" />
            <mxPoint x="360" y="-3060" as="targetPoint" />
          </mxGeometry>
        </mxCell>
        <mxCell id="w6ZVpViBwcRsXh456MgW-35" value="" style="endArrow=classic;html=1;rounded=0;exitX=1;exitY=0.5;exitDx=0;exitDy=0;" edge="1" parent="1" source="w6ZVpViBwcRsXh456MgW-33">
          <mxGeometry width="50" height="50" relative="1" as="geometry">
            <mxPoint x="380" y="-3100" as="sourcePoint" />
            <mxPoint x="510" y="-3060" as="targetPoint" />
          </mxGeometry>
        </mxCell>
        <mxCell id="w6ZVpViBwcRsXh456MgW-36" value="YES" style="text;html=1;align=center;verticalAlign=middle;resizable=0;points=[];autosize=1;strokeColor=none;fillColor=none;" vertex="1" parent="1">
          <mxGeometry x="455" y="-3092" width="50" height="30" as="geometry" />
        </mxCell>
        <mxCell id="w6ZVpViBwcRsXh456MgW-37" value="NO" style="text;html=1;align=center;verticalAlign=middle;resizable=0;points=[];autosize=1;strokeColor=none;fillColor=none;" vertex="1" parent="1">
          <mxGeometry x="370" y="-3082" width="40" height="30" as="geometry" />
        </mxCell>
        <mxCell id="w6ZVpViBwcRsXh456MgW-39" value="" style="endArrow=classic;html=1;rounded=0;exitX=-0.11;exitY=0.916;exitDx=0;exitDy=0;exitPerimeter=0;" edge="1" parent="1" source="w6ZVpViBwcRsXh456MgW-37">
          <mxGeometry width="50" height="50" relative="1" as="geometry">
            <mxPoint x="380" y="-3100" as="sourcePoint" />
            <mxPoint x="366" y="-3010" as="targetPoint" />
          </mxGeometry>
        </mxCell>
        <mxCell id="w6ZVpViBwcRsXh456MgW-40" value="PLEASE CHECK YOUR DETAILS AND TRY AGAIN" style="rounded=0;whiteSpace=wrap;html=1;" vertex="1" parent="1">
          <mxGeometry x="320" y="-3010" width="120" height="60" as="geometry" />
        </mxCell>
        <mxCell id="w6ZVpViBwcRsXh456MgW-41" value="SHOW BILL DETAILS" style="rounded=0;whiteSpace=wrap;html=1;" vertex="1" parent="1">
          <mxGeometry x="480" y="-3010" width="120" height="60" as="geometry" />
        </mxCell>
        <mxCell id="w6ZVpViBwcRsXh456MgW-43" value="" style="endArrow=classic;html=1;rounded=0;exitX=0.9;exitY=1.067;exitDx=0;exitDy=0;exitPerimeter=0;" edge="1" parent="1" source="w6ZVpViBwcRsXh456MgW-36">
          <mxGeometry width="50" height="50" relative="1" as="geometry">
            <mxPoint x="380" y="-3100" as="sourcePoint" />
            <mxPoint x="500" y="-3010" as="targetPoint" />
          </mxGeometry>
        </mxCell>
        <mxCell id="w6ZVpViBwcRsXh456MgW-44" value="" style="endArrow=classic;html=1;rounded=0;exitX=0.5;exitY=1;exitDx=0;exitDy=0;" edge="1" parent="1" source="w6ZVpViBwcRsXh456MgW-41">
          <mxGeometry width="50" height="50" relative="1" as="geometry">
            <mxPoint x="380" y="-2820" as="sourcePoint" />
            <mxPoint x="540" y="-2900" as="targetPoint" />
          </mxGeometry>
        </mxCell>
        <mxCell id="w6ZVpViBwcRsXh456MgW-45" value="PAYMENT" style="rounded=1;whiteSpace=wrap;html=1;" vertex="1" parent="1">
          <mxGeometry x="480" y="-2900" width="120" height="60" as="geometry" />
        </mxCell>
        <mxCell id="w6ZVpViBwcRsXh456MgW-46" value="" style="endArrow=classic;html=1;rounded=0;exitX=0.5;exitY=1;exitDx=0;exitDy=0;" edge="1" parent="1" source="w6ZVpViBwcRsXh456MgW-45">
          <mxGeometry width="50" height="50" relative="1" as="geometry">
            <mxPoint x="380" y="-2820" as="sourcePoint" />
            <mxPoint x="540" y="-2800" as="targetPoint" />
          </mxGeometry>
        </mxCell>
        <mxCell id="w6ZVpViBwcRsXh456MgW-47" value="PAYMENT DETAILS VALID" style="rhombus;whiteSpace=wrap;html=1;" vertex="1" parent="1">
          <mxGeometry x="500" y="-2800" width="80" height="80" as="geometry" />
        </mxCell>
        <mxCell id="w6ZVpViBwcRsXh456MgW-48" value="" style="endArrow=classic;html=1;rounded=0;exitX=0;exitY=0.5;exitDx=0;exitDy=0;" edge="1" parent="1" source="w6ZVpViBwcRsXh456MgW-47">
          <mxGeometry width="50" height="50" relative="1" as="geometry">
            <mxPoint x="380" y="-2820" as="sourcePoint" />
            <mxPoint x="460" y="-2760" as="targetPoint" />
          </mxGeometry>
        </mxCell>
        <mxCell id="w6ZVpViBwcRsXh456MgW-49" value="" style="endArrow=classic;html=1;rounded=0;exitX=1;exitY=0.5;exitDx=0;exitDy=0;" edge="1" parent="1" source="w6ZVpViBwcRsXh456MgW-47">
          <mxGeometry width="50" height="50" relative="1" as="geometry">
            <mxPoint x="380" y="-2820" as="sourcePoint" />
            <mxPoint x="620" y="-2760" as="targetPoint" />
          </mxGeometry>
        </mxCell>
        <mxCell id="w6ZVpViBwcRsXh456MgW-50" value="YES" style="text;html=1;align=center;verticalAlign=middle;resizable=0;points=[];autosize=1;strokeColor=none;fillColor=none;" vertex="1" parent="1">
          <mxGeometry x="565" y="-2792" width="50" height="30" as="geometry" />
        </mxCell>
        <mxCell id="w6ZVpViBwcRsXh456MgW-51" value="NO" style="text;html=1;align=center;verticalAlign=middle;resizable=0;points=[];autosize=1;strokeColor=none;fillColor=none;" vertex="1" parent="1">
          <mxGeometry x="460" y="-2792" width="40" height="30" as="geometry" />
        </mxCell>
        <mxCell id="w6ZVpViBwcRsXh456MgW-52" value="BILL PAYMENT UNSUCCESSFUL" style="rounded=0;whiteSpace=wrap;html=1;" vertex="1" parent="1">
          <mxGeometry x="420" y="-2690" width="120" height="60" as="geometry" />
        </mxCell>
        <mxCell id="w6ZVpViBwcRsXh456MgW-53" value="BILL PAYMENT SUCCESSFUL" style="rounded=0;whiteSpace=wrap;html=1;" vertex="1" parent="1">
          <mxGeometry x="590" y="-2690" width="120" height="60" as="geometry" />
        </mxCell>
        <mxCell id="w6ZVpViBwcRsXh456MgW-54" value="" style="endArrow=classic;html=1;rounded=0;exitX=0;exitY=1.067;exitDx=0;exitDy=0;exitPerimeter=0;entryX=0.333;entryY=0;entryDx=0;entryDy=0;entryPerimeter=0;" edge="1" parent="1" source="w6ZVpViBwcRsXh456MgW-51" target="w6ZVpViBwcRsXh456MgW-52">
          <mxGeometry width="50" height="50" relative="1" as="geometry">
            <mxPoint x="380" y="-2820" as="sourcePoint" />
            <mxPoint x="430" y="-2870" as="targetPoint" />
          </mxGeometry>
        </mxCell>
        <mxCell id="w6ZVpViBwcRsXh456MgW-55" value="" style="endArrow=classic;html=1;rounded=0;exitX=0.9;exitY=1.067;exitDx=0;exitDy=0;exitPerimeter=0;entryX=0.169;entryY=0.042;entryDx=0;entryDy=0;entryPerimeter=0;" edge="1" parent="1" source="w6ZVpViBwcRsXh456MgW-50" target="w6ZVpViBwcRsXh456MgW-53">
          <mxGeometry width="50" height="50" relative="1" as="geometry">
            <mxPoint x="380" y="-2820" as="sourcePoint" />
            <mxPoint x="430" y="-2870" as="targetPoint" />
          </mxGeometry>
        </mxCell>
        <mxCell id="w6ZVpViBwcRsXh456MgW-56" value="" style="endArrow=classic;html=1;rounded=0;exitX=0.5;exitY=1;exitDx=0;exitDy=0;" edge="1" parent="1" source="eqK2j_GpqWFCPIP73Zsx-14">
          <mxGeometry width="50" height="50" relative="1" as="geometry">
            <mxPoint x="380" y="-3520" as="sourcePoint" />
            <mxPoint x="640" y="-3430" as="targetPoint" />
          </mxGeometry>
        </mxCell>
        <mxCell id="w6ZVpViBwcRsXh456MgW-59" value="PLEASE ENTER CREDITCARD NUMBER/BANK" style="rounded=1;whiteSpace=wrap;html=1;" vertex="1" parent="1">
          <mxGeometry x="580" y="-3430" width="120" height="60" as="geometry" />
        </mxCell>
        <mxCell id="w6ZVpViBwcRsXh456MgW-60" value="" style="endArrow=classic;html=1;rounded=0;exitX=0.5;exitY=1;exitDx=0;exitDy=0;" edge="1" parent="1" source="w6ZVpViBwcRsXh456MgW-59">
          <mxGeometry width="50" height="50" relative="1" as="geometry">
            <mxPoint x="380" y="-3240" as="sourcePoint" />
            <mxPoint x="640" y="-3310" as="targetPoint" />
          </mxGeometry>
        </mxCell>
        <mxCell id="w6ZVpViBwcRsXh456MgW-61" value="VALID DETAILS" style="rhombus;whiteSpace=wrap;html=1;" vertex="1" parent="1">
          <mxGeometry x="600" y="-3310" width="80" height="62" as="geometry" />
        </mxCell>
        <mxCell id="w6ZVpViBwcRsXh456MgW-62" value="" style="endArrow=classic;html=1;rounded=0;exitX=0;exitY=0.5;exitDx=0;exitDy=0;" edge="1" parent="1" source="w6ZVpViBwcRsXh456MgW-61">
          <mxGeometry width="50" height="50" relative="1" as="geometry">
            <mxPoint x="380" y="-3240" as="sourcePoint" />
            <mxPoint x="550" y="-3230" as="targetPoint" />
            <Array as="points">
              <mxPoint x="550" y="-3280" />
            </Array>
          </mxGeometry>
        </mxCell>
        <mxCell id="w6ZVpViBwcRsXh456MgW-63" value="NO" style="edgeLabel;html=1;align=center;verticalAlign=middle;resizable=0;points=[];" vertex="1" connectable="0" parent="w6ZVpViBwcRsXh456MgW-62">
          <mxGeometry x="-0.6402" y="-2" relative="1" as="geometry">
            <mxPoint as="offset" />
          </mxGeometry>
        </mxCell>
        <mxCell id="w6ZVpViBwcRsXh456MgW-64" value="" style="endArrow=classic;html=1;rounded=0;exitX=1;exitY=0.5;exitDx=0;exitDy=0;" edge="1" parent="1" source="w6ZVpViBwcRsXh456MgW-61">
          <mxGeometry width="50" height="50" relative="1" as="geometry">
            <mxPoint x="380" y="-3240" as="sourcePoint" />
            <mxPoint x="730" y="-3230" as="targetPoint" />
            <Array as="points">
              <mxPoint x="730" y="-3280" />
            </Array>
          </mxGeometry>
        </mxCell>
        <mxCell id="w6ZVpViBwcRsXh456MgW-65" value="YES" style="edgeLabel;html=1;align=center;verticalAlign=middle;resizable=0;points=[];" vertex="1" connectable="0" parent="w6ZVpViBwcRsXh456MgW-64">
          <mxGeometry x="-0.4135" y="10" relative="1" as="geometry">
            <mxPoint as="offset" />
          </mxGeometry>
        </mxCell>
        <mxCell id="w6ZVpViBwcRsXh456MgW-66" value="PLEASE ENTER VALID DETAILS" style="rounded=0;whiteSpace=wrap;html=1;" vertex="1" parent="1">
          <mxGeometry x="505" y="-3232" width="120" height="60" as="geometry" />
        </mxCell>
        <mxCell id="w6ZVpViBwcRsXh456MgW-67" value="PROCEED TO PAYMENT" style="rounded=1;whiteSpace=wrap;html=1;" vertex="1" parent="1">
          <mxGeometry x="670" y="-3232" width="120" height="60" as="geometry" />
        </mxCell>
        <mxCell id="w6ZVpViBwcRsXh456MgW-68" value="" style="endArrow=classic;html=1;rounded=0;exitX=0.5;exitY=1;exitDx=0;exitDy=0;" edge="1" parent="1" source="w6ZVpViBwcRsXh456MgW-67">
          <mxGeometry width="50" height="50" relative="1" as="geometry">
            <mxPoint x="380" y="-3240" as="sourcePoint" />
            <mxPoint x="730" y="-3110" as="targetPoint" />
          </mxGeometry>
        </mxCell>
        <mxCell id="w6ZVpViBwcRsXh456MgW-69" value="SELECT PAYMENT METHOD" style="rounded=1;whiteSpace=wrap;html=1;" vertex="1" parent="1">
          <mxGeometry x="670" y="-3110" width="120" height="60" as="geometry" />
        </mxCell>
        <mxCell id="w6ZVpViBwcRsXh456MgW-70" value="" style="endArrow=classic;html=1;rounded=0;exitX=0.5;exitY=1;exitDx=0;exitDy=0;" edge="1" parent="1" source="w6ZVpViBwcRsXh456MgW-69">
          <mxGeometry width="50" height="50" relative="1" as="geometry">
            <mxPoint x="380" y="-2960" as="sourcePoint" />
            <mxPoint x="730" y="-3010" as="targetPoint" />
          </mxGeometry>
        </mxCell>
        <mxCell id="w6ZVpViBwcRsXh456MgW-71" value="ENTER AMOUNT" style="rounded=1;whiteSpace=wrap;html=1;" vertex="1" parent="1">
          <mxGeometry x="670" y="-3010" width="120" height="60" as="geometry" />
        </mxCell>
        <mxCell id="w6ZVpViBwcRsXh456MgW-72" value="" style="endArrow=classic;html=1;rounded=0;exitX=0.5;exitY=1;exitDx=0;exitDy=0;" edge="1" parent="1" source="w6ZVpViBwcRsXh456MgW-71">
          <mxGeometry width="50" height="50" relative="1" as="geometry">
            <mxPoint x="380" y="-2960" as="sourcePoint" />
            <mxPoint x="730" y="-2900" as="targetPoint" />
          </mxGeometry>
        </mxCell>
        <mxCell id="w6ZVpViBwcRsXh456MgW-73" value="CLICK ON PAY" style="rounded=1;whiteSpace=wrap;html=1;" vertex="1" parent="1">
          <mxGeometry x="670" y="-2900" width="120" height="60" as="geometry" />
        </mxCell>
        <mxCell id="w6ZVpViBwcRsXh456MgW-74" value="ENTER PASSWORD (UPI,NET BANKING ETC.)" style="rounded=1;whiteSpace=wrap;html=1;" vertex="1" parent="1">
          <mxGeometry x="680" y="-2807" width="120" height="60" as="geometry" />
        </mxCell>
        <mxCell id="w6ZVpViBwcRsXh456MgW-75" value="" style="endArrow=classic;html=1;rounded=0;exitX=0.5;exitY=1;exitDx=0;exitDy=0;" edge="1" parent="1">
          <mxGeometry width="50" height="50" relative="1" as="geometry">
            <mxPoint x="729.41" y="-2842" as="sourcePoint" />
            <mxPoint x="729" y="-2810" as="targetPoint" />
          </mxGeometry>
        </mxCell>
        <mxCell id="w6ZVpViBwcRsXh456MgW-76" value="" style="endArrow=classic;html=1;rounded=0;exitX=0.833;exitY=0.95;exitDx=0;exitDy=0;exitPerimeter=0;" edge="1" parent="1" source="w6ZVpViBwcRsXh456MgW-74">
          <mxGeometry width="50" height="50" relative="1" as="geometry">
            <mxPoint x="380" y="-2770" as="sourcePoint" />
            <mxPoint x="780" y="-2700" as="targetPoint" />
          </mxGeometry>
        </mxCell>
        <mxCell id="w6ZVpViBwcRsXh456MgW-77" value="&lt;font style=&quot;font-size: 9px;&quot;&gt;&lt;b&gt;PASSWORD VALID&lt;/b&gt;&lt;/font&gt;" style="rhombus;whiteSpace=wrap;html=1;" vertex="1" parent="1">
          <mxGeometry x="750" y="-2700" width="60" height="60" as="geometry" />
        </mxCell>
        <mxCell id="w6ZVpViBwcRsXh456MgW-78" value="" style="endArrow=classic;html=1;rounded=0;exitX=0;exitY=0.5;exitDx=0;exitDy=0;" edge="1" parent="1" source="w6ZVpViBwcRsXh456MgW-77">
          <mxGeometry width="50" height="50" relative="1" as="geometry">
            <mxPoint x="380" y="-2770" as="sourcePoint" />
            <mxPoint x="730" y="-2610" as="targetPoint" />
            <Array as="points">
              <mxPoint x="730" y="-2670" />
            </Array>
          </mxGeometry>
        </mxCell>
        <mxCell id="w6ZVpViBwcRsXh456MgW-79" value="NO" style="text;html=1;align=center;verticalAlign=middle;resizable=0;points=[];autosize=1;strokeColor=none;fillColor=none;" vertex="1" parent="1">
          <mxGeometry x="720" y="-2692" width="40" height="30" as="geometry" />
        </mxCell>
        <mxCell id="w6ZVpViBwcRsXh456MgW-80" value="" style="endArrow=classic;html=1;rounded=0;exitX=1;exitY=0.5;exitDx=0;exitDy=0;" edge="1" parent="1" source="w6ZVpViBwcRsXh456MgW-77">
          <mxGeometry width="50" height="50" relative="1" as="geometry">
            <mxPoint x="380" y="-2770" as="sourcePoint" />
            <mxPoint x="850" y="-2610" as="targetPoint" />
            <Array as="points">
              <mxPoint x="850" y="-2670" />
            </Array>
          </mxGeometry>
        </mxCell>
        <mxCell id="w6ZVpViBwcRsXh456MgW-81" value="YES" style="text;html=1;align=center;verticalAlign=middle;resizable=0;points=[];autosize=1;strokeColor=none;fillColor=none;" vertex="1" parent="1">
          <mxGeometry x="805" y="-2702" width="50" height="30" as="geometry" />
        </mxCell>
        <mxCell id="w6ZVpViBwcRsXh456MgW-82" value="BILL PAYMENT UNSUCCESSFUL" style="rounded=0;whiteSpace=wrap;html=1;" vertex="1" parent="1">
          <mxGeometry x="665" y="-2610" width="120" height="60" as="geometry" />
        </mxCell>
        <mxCell id="w6ZVpViBwcRsXh456MgW-83" value="BILL PAYMENT SUCCESSFUL" style="rounded=0;whiteSpace=wrap;html=1;" vertex="1" parent="1">
          <mxGeometry x="802" y="-2610" width="120" height="60" as="geometry" />
        </mxCell>
        <mxCell id="w6ZVpViBwcRsXh456MgW-84" value="SEARCH OPERATOR" style="rounded=1;whiteSpace=wrap;html=1;" vertex="1" parent="1">
          <mxGeometry x="785" y="-3440" width="120" height="60" as="geometry" />
        </mxCell>
        <mxCell id="w6ZVpViBwcRsXh456MgW-85" value="" style="endArrow=classic;html=1;rounded=0;exitX=0.75;exitY=1;exitDx=0;exitDy=0;entryX=0.375;entryY=0;entryDx=0;entryDy=0;entryPerimeter=0;" edge="1" parent="1" source="eqK2j_GpqWFCPIP73Zsx-15" target="w6ZVpViBwcRsXh456MgW-84">
          <mxGeometry width="50" height="50" relative="1" as="geometry">
            <mxPoint x="470" y="-3380" as="sourcePoint" />
            <mxPoint x="520" y="-3430" as="targetPoint" />
          </mxGeometry>
        </mxCell>
        <mxCell id="w6ZVpViBwcRsXh456MgW-86" value="" style="endArrow=classic;html=1;rounded=0;exitX=0.75;exitY=1;exitDx=0;exitDy=0;" edge="1" parent="1" source="w6ZVpViBwcRsXh456MgW-84">
          <mxGeometry width="50" height="50" relative="1" as="geometry">
            <mxPoint x="470" y="-3380" as="sourcePoint" />
            <mxPoint x="875" y="-3320" as="targetPoint" />
          </mxGeometry>
        </mxCell>
        <mxCell id="w6ZVpViBwcRsXh456MgW-87" value="ENTER MOBILE NO./LPG ID" style="rounded=1;whiteSpace=wrap;html=1;" vertex="1" parent="1">
          <mxGeometry x="820" y="-3322" width="120" height="60" as="geometry" />
        </mxCell>
        <mxCell id="w6ZVpViBwcRsXh456MgW-88" value="" style="endArrow=classic;html=1;rounded=0;exitX=0.75;exitY=1;exitDx=0;exitDy=0;" edge="1" parent="1" source="w6ZVpViBwcRsXh456MgW-87" target="w6ZVpViBwcRsXh456MgW-89">
          <mxGeometry width="50" height="50" relative="1" as="geometry">
            <mxPoint x="460" y="-3150" as="sourcePoint" />
            <mxPoint x="910" y="-3210" as="targetPoint" />
          </mxGeometry>
        </mxCell>
        <mxCell id="w6ZVpViBwcRsXh456MgW-89" value="VALID DETAILS" style="rhombus;whiteSpace=wrap;html=1;" vertex="1" parent="1">
          <mxGeometry x="870" y="-3210" width="80" height="80" as="geometry" />
        </mxCell>
        <mxCell id="w6ZVpViBwcRsXh456MgW-90" value="" style="endArrow=classic;html=1;rounded=0;exitX=0;exitY=0.5;exitDx=0;exitDy=0;" edge="1" parent="1" source="w6ZVpViBwcRsXh456MgW-89">
          <mxGeometry width="50" height="50" relative="1" as="geometry">
            <mxPoint x="460" y="-3150" as="sourcePoint" />
            <mxPoint x="840" y="-3120" as="targetPoint" />
            <Array as="points">
              <mxPoint x="840" y="-3170" />
            </Array>
          </mxGeometry>
        </mxCell>
        <mxCell id="w6ZVpViBwcRsXh456MgW-91" value="NO" style="text;html=1;align=center;verticalAlign=middle;resizable=0;points=[];autosize=1;strokeColor=none;fillColor=none;" vertex="1" parent="1">
          <mxGeometry x="830" y="-3202" width="40" height="30" as="geometry" />
        </mxCell>
        <mxCell id="w6ZVpViBwcRsXh456MgW-92" value="" style="endArrow=classic;html=1;rounded=0;exitX=1;exitY=0.5;exitDx=0;exitDy=0;" edge="1" parent="1" source="w6ZVpViBwcRsXh456MgW-89">
          <mxGeometry width="50" height="50" relative="1" as="geometry">
            <mxPoint x="480" y="-3130" as="sourcePoint" />
            <mxPoint x="980" y="-3120" as="targetPoint" />
            <Array as="points">
              <mxPoint x="980" y="-3170" />
            </Array>
          </mxGeometry>
        </mxCell>
        <mxCell id="w6ZVpViBwcRsXh456MgW-94" value="YES" style="text;html=1;align=center;verticalAlign=middle;resizable=0;points=[];autosize=1;strokeColor=none;fillColor=none;" vertex="1" parent="1">
          <mxGeometry x="935" y="-3202" width="50" height="30" as="geometry" />
        </mxCell>
        <mxCell id="w6ZVpViBwcRsXh456MgW-95" value="&lt;font style=&quot;font-size: 9px;&quot;&gt;&lt;b&gt;SORRY UNABLE TO FIND CONSUMER DETAILS PLEASE ENTER VALID INPUTS&lt;/b&gt;&lt;/font&gt;" style="rounded=0;whiteSpace=wrap;html=1;" vertex="1" parent="1">
          <mxGeometry x="802" y="-3122" width="120" height="60" as="geometry" />
        </mxCell>
        <mxCell id="w6ZVpViBwcRsXh456MgW-96" value="SHOW BILL DETAILS" style="rounded=0;whiteSpace=wrap;html=1;" vertex="1" parent="1">
          <mxGeometry x="935" y="-3122" width="120" height="60" as="geometry" />
        </mxCell>
        <mxCell id="w6ZVpViBwcRsXh456MgW-97" value="" style="endArrow=classic;html=1;rounded=0;exitX=0.5;exitY=1;exitDx=0;exitDy=0;" edge="1" parent="1" source="w6ZVpViBwcRsXh456MgW-96">
          <mxGeometry width="50" height="50" relative="1" as="geometry">
            <mxPoint x="640" y="-2800" as="sourcePoint" />
            <mxPoint x="995" y="-3010" as="targetPoint" />
          </mxGeometry>
        </mxCell>
        <mxCell id="w6ZVpViBwcRsXh456MgW-98" value="PAYMENT" style="rounded=1;whiteSpace=wrap;html=1;" vertex="1" parent="1">
          <mxGeometry x="935" y="-3010" width="120" height="60" as="geometry" />
        </mxCell>
        <mxCell id="w6ZVpViBwcRsXh456MgW-99" value="" style="endArrow=classic;html=1;rounded=0;exitX=0.5;exitY=1;exitDx=0;exitDy=0;" edge="1" parent="1" source="w6ZVpViBwcRsXh456MgW-98">
          <mxGeometry width="50" height="50" relative="1" as="geometry">
            <mxPoint x="640" y="-2800" as="sourcePoint" />
            <mxPoint x="995" y="-2900" as="targetPoint" />
          </mxGeometry>
        </mxCell>
        <mxCell id="w6ZVpViBwcRsXh456MgW-100" value="PAYMENT DETAILS VALID" style="rhombus;whiteSpace=wrap;html=1;" vertex="1" parent="1">
          <mxGeometry x="955" y="-2900" width="80" height="80" as="geometry" />
        </mxCell>
        <mxCell id="w6ZVpViBwcRsXh456MgW-101" value="" style="endArrow=classic;html=1;rounded=0;exitX=0;exitY=0.5;exitDx=0;exitDy=0;" edge="1" parent="1" source="w6ZVpViBwcRsXh456MgW-100">
          <mxGeometry width="50" height="50" relative="1" as="geometry">
            <mxPoint x="640" y="-2800" as="sourcePoint" />
            <mxPoint x="890" y="-2800" as="targetPoint" />
            <Array as="points">
              <mxPoint x="890" y="-2860" />
            </Array>
          </mxGeometry>
        </mxCell>
        <mxCell id="w6ZVpViBwcRsXh456MgW-102" value="" style="endArrow=classic;html=1;rounded=0;exitX=1;exitY=0.5;exitDx=0;exitDy=0;" edge="1" parent="1" source="w6ZVpViBwcRsXh456MgW-100">
          <mxGeometry width="50" height="50" relative="1" as="geometry">
            <mxPoint x="640" y="-2800" as="sourcePoint" />
            <mxPoint x="1090" y="-2800" as="targetPoint" />
            <Array as="points">
              <mxPoint x="1090" y="-2860" />
            </Array>
          </mxGeometry>
        </mxCell>
        <mxCell id="w6ZVpViBwcRsXh456MgW-103" value="YES" style="text;html=1;align=center;verticalAlign=middle;resizable=0;points=[];autosize=1;strokeColor=none;fillColor=none;" vertex="1" parent="1">
          <mxGeometry x="1035" y="-2892" width="50" height="30" as="geometry" />
        </mxCell>
        <mxCell id="w6ZVpViBwcRsXh456MgW-104" value="NO" style="text;html=1;align=center;verticalAlign=middle;resizable=0;points=[];autosize=1;strokeColor=none;fillColor=none;" vertex="1" parent="1">
          <mxGeometry x="910" y="-2892" width="40" height="30" as="geometry" />
        </mxCell>
        <mxCell id="w6ZVpViBwcRsXh456MgW-105" value="BILL PAYMENT UNSUCCESSFUL" style="rounded=0;whiteSpace=wrap;html=1;" vertex="1" parent="1">
          <mxGeometry x="830" y="-2800" width="120" height="60" as="geometry" />
        </mxCell>
        <mxCell id="w6ZVpViBwcRsXh456MgW-107" value="BILL PAYMENT SUCCESSFUL" style="rounded=0;whiteSpace=wrap;html=1;" vertex="1" parent="1">
          <mxGeometry x="1030" y="-2800" width="120" height="60" as="geometry" />
        </mxCell>
        <mxCell id="w6ZVpViBwcRsXh456MgW-108" value="END" style="ellipse;whiteSpace=wrap;html=1;aspect=fixed;" vertex="1" parent="1">
          <mxGeometry x="415" y="-2484" width="74" height="74" as="geometry" />
        </mxCell>
        <mxCell id="w6ZVpViBwcRsXh456MgW-109" value="" style="endArrow=classic;html=1;rounded=0;exitX=0.5;exitY=1;exitDx=0;exitDy=0;entryX=0;entryY=0.5;entryDx=0;entryDy=0;" edge="1" parent="1" source="w6ZVpViBwcRsXh456MgW-9" target="w6ZVpViBwcRsXh456MgW-108">
          <mxGeometry width="50" height="50" relative="1" as="geometry">
            <mxPoint x="540" y="-2560" as="sourcePoint" />
            <mxPoint x="590" y="-2610" as="targetPoint" />
            <Array as="points">
              <mxPoint x="150" y="-2440" />
            </Array>
          </mxGeometry>
        </mxCell>
        <mxCell id="w6ZVpViBwcRsXh456MgW-110" value="" style="endArrow=classic;html=1;rounded=0;exitX=0.5;exitY=1;exitDx=0;exitDy=0;entryX=0;entryY=0;entryDx=0;entryDy=0;" edge="1" parent="1" source="w6ZVpViBwcRsXh456MgW-10" target="w6ZVpViBwcRsXh456MgW-108">
          <mxGeometry width="50" height="50" relative="1" as="geometry">
            <mxPoint x="340" y="-2620" as="sourcePoint" />
            <mxPoint x="590" y="-2610" as="targetPoint" />
            <Array as="points">
              <mxPoint x="330" y="-2472" />
            </Array>
          </mxGeometry>
        </mxCell>
        <mxCell id="w6ZVpViBwcRsXh456MgW-111" value="" style="endArrow=classic;html=1;rounded=0;entryX=0.647;entryY=0.015;entryDx=0;entryDy=0;entryPerimeter=0;" edge="1" parent="1" target="w6ZVpViBwcRsXh456MgW-108">
          <mxGeometry width="50" height="50" relative="1" as="geometry">
            <mxPoint x="467" y="-2630" as="sourcePoint" />
            <mxPoint x="590" y="-2610" as="targetPoint" />
          </mxGeometry>
        </mxCell>
        <mxCell id="w6ZVpViBwcRsXh456MgW-112" value="" style="endArrow=classic;html=1;rounded=0;exitX=0.25;exitY=1;exitDx=0;exitDy=0;entryX=0.971;entryY=0.324;entryDx=0;entryDy=0;entryPerimeter=0;" edge="1" parent="1" source="w6ZVpViBwcRsXh456MgW-53" target="w6ZVpViBwcRsXh456MgW-108">
          <mxGeometry width="50" height="50" relative="1" as="geometry">
            <mxPoint x="540" y="-2560" as="sourcePoint" />
            <mxPoint x="590" y="-2610" as="targetPoint" />
            <Array as="points">
              <mxPoint x="620" y="-2460" />
            </Array>
          </mxGeometry>
        </mxCell>
        <mxCell id="w6ZVpViBwcRsXh456MgW-113" value="" style="endArrow=classic;html=1;rounded=0;exitX=0.458;exitY=1;exitDx=0;exitDy=0;entryX=0.986;entryY=0.653;entryDx=0;entryDy=0;entryPerimeter=0;exitPerimeter=0;" edge="1" parent="1" source="w6ZVpViBwcRsXh456MgW-82" target="w6ZVpViBwcRsXh456MgW-108">
          <mxGeometry width="50" height="50" relative="1" as="geometry">
            <mxPoint x="540" y="-2560" as="sourcePoint" />
            <mxPoint x="590" y="-2610" as="targetPoint" />
            <Array as="points">
              <mxPoint x="720" y="-2440" />
            </Array>
          </mxGeometry>
        </mxCell>
        <mxCell id="w6ZVpViBwcRsXh456MgW-114" value="" style="endArrow=classic;html=1;rounded=0;exitX=0.5;exitY=1;exitDx=0;exitDy=0;entryX=0.715;entryY=0.986;entryDx=0;entryDy=0;entryPerimeter=0;" edge="1" parent="1" source="w6ZVpViBwcRsXh456MgW-83" target="w6ZVpViBwcRsXh456MgW-108">
          <mxGeometry width="50" height="50" relative="1" as="geometry">
            <mxPoint x="540" y="-2560" as="sourcePoint" />
            <mxPoint x="590" y="-2610" as="targetPoint" />
            <Array as="points">
              <mxPoint x="862" y="-2411" />
            </Array>
          </mxGeometry>
        </mxCell>
        <mxCell id="w6ZVpViBwcRsXh456MgW-115" value="" style="endArrow=classic;html=1;rounded=0;entryX=0.286;entryY=0.986;entryDx=0;entryDy=0;entryPerimeter=0;exitX=0.924;exitY=0.993;exitDx=0;exitDy=0;exitPerimeter=0;" edge="1" parent="1" source="w6ZVpViBwcRsXh456MgW-105" target="w6ZVpViBwcRsXh456MgW-108">
          <mxGeometry width="50" height="50" relative="1" as="geometry">
            <mxPoint x="940" y="-2730" as="sourcePoint" />
            <mxPoint x="433.7959999999998" y="-2423.8160000000003" as="targetPoint" />
            <Array as="points">
              <mxPoint x="940" y="-2332.78" />
              <mxPoint x="435" y="-2332.78" />
            </Array>
          </mxGeometry>
        </mxCell>
        <mxCell id="w6ZVpViBwcRsXh456MgW-119" value="" style="endArrow=classic;html=1;rounded=0;exitX=0.5;exitY=1;exitDx=0;exitDy=0;entryX=0;entryY=1;entryDx=0;entryDy=0;" edge="1" parent="1" source="w6ZVpViBwcRsXh456MgW-107" target="w6ZVpViBwcRsXh456MgW-108">
          <mxGeometry width="50" height="50" relative="1" as="geometry">
            <mxPoint x="680" y="-2510" as="sourcePoint" />
            <mxPoint x="730" y="-2560" as="targetPoint" />
            <Array as="points">
              <mxPoint x="1090" y="-2290" />
              <mxPoint x="320" y="-2290" />
              <mxPoint x="320" y="-2421" />
            </Array>
          </mxGeometry>
        </mxCell>
      </root>
    </mxGraphModel>
  </diagram>
</mxfile>
